<svg width="101" height="96" viewBox="0 0 101 96" fill="none" xmlns="http://www.w3.org/2000/svg">
<path d="M5.4156 89.3505V76.0372H0.300881V71.6746H15.9459V76.0372H10.8312V89.3505H5.4156ZM25.9597 89.6514C23.9874 89.6514 22.2741 89.2753 20.8199 88.5231C19.3824 87.7542 18.2625 86.6845 17.4602 85.3139C16.6746 83.9433 16.2818 82.3387 16.2818 80.5C16.2818 78.6614 16.6746 77.0651 17.4602 75.7113C18.2625 74.3406 19.3824 73.2793 20.8199 72.5271C22.2741 71.7582 23.9874 71.3738 25.9597 71.3738C27.1632 71.3738 28.2663 71.5326 29.2692 71.8501C30.2888 72.151 31.1329 72.5856 31.8015 73.1539L30.222 77.3911C29.4698 76.8896 28.7929 76.547 28.1911 76.3631C27.5894 76.1625 26.9124 76.0623 26.1603 76.0623C24.8064 76.0623 23.7617 76.4467 23.0263 77.2156C22.3075 77.9677 21.9482 79.0626 21.9482 80.5C21.9482 81.9542 22.3075 83.0658 23.0263 83.8346C23.7617 84.5868 24.8064 84.9629 26.1603 84.9629C26.9124 84.9629 27.5894 84.8709 28.1911 84.6871C28.7929 84.4865 29.4698 84.1355 30.222 83.6341L31.8015 87.8713C31.1329 88.4396 30.2888 88.8825 29.2692 89.2001C28.2663 89.5009 27.1632 89.6514 25.9597 89.6514ZM42.5112 89.6514C40.5389 89.6514 38.8256 89.2753 37.3715 88.5231C35.934 87.7542 34.8141 86.6845 34.0118 85.3139C33.2262 83.9433 32.8334 82.3387 32.8334 80.5C32.8334 78.6614 33.2262 77.0651 34.0118 75.7113C34.8141 74.3406 35.934 73.2793 37.3715 72.5271C38.8256 71.7582 40.5389 71.3738 42.5112 71.3738C43.7147 71.3738 44.8179 71.5326 45.8208 71.8501C46.8404 72.151 47.6845 72.5856 48.3531 73.1539L46.7735 77.3911C46.0214 76.8896 45.3444 76.547 44.7427 76.3631C44.1409 76.1625 43.464 76.0623 42.7118 76.0623C41.3579 76.0623 40.3133 76.4467 39.5778 77.2156C38.8591 77.9677 38.4997 79.0626 38.4997 80.5C38.4997 81.9542 38.8591 83.0658 39.5778 83.8346C40.3133 84.5868 41.3579 84.9629 42.7118 84.9629C43.464 84.9629 44.1409 84.8709 44.7427 84.6871C45.3444 84.4865 46.0214 84.1355 46.7735 83.6341L48.3531 87.8713C47.6845 88.4396 46.8404 88.8825 45.8208 89.2001C44.8179 89.5009 43.7147 89.6514 42.5112 89.6514ZM56.3364 89.6514C53.9295 89.6514 52.0658 89.0496 50.7453 87.8462C49.4248 86.6427 48.7646 85.0047 48.7646 82.932C48.7646 81.645 49.032 80.5 49.5669 79.4971C50.1185 78.4943 50.8874 77.7087 51.8735 77.1404C52.8764 76.5553 54.0465 76.2628 55.3836 76.2628C56.7208 76.2628 57.8324 76.5553 58.7182 77.1404C59.6041 77.7254 60.2644 78.5277 60.6989 79.5473C61.1335 80.5502 61.3508 81.7035 61.3508 83.0073V84.0101H53.1773V81.6534H57.4646L57.0384 82.0044C57.0384 81.1853 56.8963 80.592 56.6122 80.2242C56.328 79.8398 55.9352 79.6476 55.4338 79.6476C54.8488 79.6476 54.4058 79.8816 54.105 80.3496C53.8208 80.8009 53.6787 81.5364 53.6787 82.556V83.0825C53.6787 84.0519 53.9127 84.7539 54.3808 85.1885C54.8655 85.6064 55.5759 85.8153 56.5119 85.8153C57.1471 85.8153 57.7488 85.7568 58.3171 85.6398C58.8854 85.5061 59.4286 85.2972 59.9468 85.013L61.2505 88.3978C60.5819 88.7989 59.8298 89.1081 58.994 89.3254C58.175 89.5427 57.2891 89.6514 56.3364 89.6514ZM63.1983 89.3505V80.1992C63.1983 79.5974 63.1816 78.9957 63.1482 78.394C63.1148 77.7755 63.0646 77.1654 62.9978 76.5637H68.0122L68.5888 80.7508H67.8116C67.9788 79.7312 68.2295 78.8954 68.5638 78.2435C68.9148 77.5749 69.3661 77.0819 69.9177 76.7643C70.4693 76.43 71.1378 76.2628 71.9234 76.2628C72.3079 76.2628 72.5837 76.2796 72.7508 76.313C72.9347 76.3464 73.1269 76.4049 73.3275 76.4885V81.0516C72.8762 80.851 72.5168 80.7257 72.2494 80.6755C71.9819 80.6087 71.6309 80.5753 71.1964 80.5753C70.511 80.5753 69.9678 80.6839 69.5667 80.9012C69.1655 81.1018 68.8814 81.4444 68.7142 81.9291C68.5471 82.4139 68.4635 83.0741 68.4635 83.9098V89.3505H63.1983ZM82.3658 89.6514C80.3767 89.6514 78.8891 89.2001 77.903 88.2975C76.9168 87.3782 76.4237 85.9908 76.4237 84.1355V80.3747H74.0669V76.5637H76.4237V73.6804L81.6387 72.4769V76.5637H84.5972V80.3747H81.6387V83.9851C81.6387 84.6369 81.7975 85.0548 82.1151 85.2387C82.4494 85.4225 82.8171 85.5145 83.2183 85.5145C83.5024 85.5145 83.7364 85.4978 83.9203 85.4643C84.1209 85.4309 84.3465 85.3724 84.5972 85.2888V89.2502C84.1961 89.4174 83.8033 89.526 83.4188 89.5762C83.0511 89.6263 82.7001 89.6514 82.3658 89.6514ZM92.6883 89.6514C91.2174 89.6514 89.9387 89.3839 88.8523 88.8491C87.7658 88.2975 86.9217 87.5202 86.32 86.5174C85.7349 85.5145 85.4424 84.3277 85.4424 82.9571C85.4424 81.5698 85.7349 80.383 86.32 79.3969C86.9217 78.394 87.7658 77.6251 88.8523 77.0902C89.9387 76.5386 91.2174 76.2628 92.6883 76.2628C94.1592 76.2628 95.4295 76.5386 96.4993 77.0902C97.5857 77.6251 98.4215 78.394 99.0065 79.3969C99.6082 80.383 99.9091 81.5698 99.9091 82.9571C99.9091 84.3277 99.6082 85.5145 99.0065 86.5174C98.4215 87.5202 97.5857 88.2975 96.4993 88.8491C95.4295 89.3839 94.1592 89.6514 92.6883 89.6514ZM92.6883 85.8153C93.29 85.8153 93.7664 85.598 94.1174 85.1635C94.4684 84.7289 94.6439 83.9934 94.6439 82.9571C94.6439 81.9208 94.4684 81.1853 94.1174 80.7508C93.7664 80.3162 93.29 80.0989 92.6883 80.0989C92.0698 80.0989 91.5851 80.3162 91.2341 80.7508C90.8831 81.1853 90.7076 81.9208 90.7076 82.9571C90.7076 83.9934 90.8831 84.7289 91.2341 85.1635C91.5851 85.598 92.0698 85.8153 92.6883 85.8153Z" fill="white"/>
<path fill-rule="evenodd" clip-rule="evenodd" d="M37.0559 0.221047C35.1897 0.462007 32.4125 1.30195 30.4532 2.21812C28.4449 3.15702 26.7992 4.28076 19.5278 9.67722C16.4789 11.9398 12.2833 15.0429 10.2043 16.5727C5.492 20.0405 3.76127 21.8014 2.4992 24.4124C0.972458 27.5708 0.611839 30.8555 1.38105 34.5952C2.31617 39.1403 5.1459 42.7998 9.34816 44.8986C10.4427 45.4453 11.6711 45.9069 30.9168 53.0041C53.5196 61.3394 55.2322 61.9593 56.2695 62.1813C57.9253 62.5355 60.3551 62.3159 61.7294 61.6874C63.9568 60.6688 64.7053 59.9137 70.6732 52.6626C73.8631 48.7867 76.6376 45.3584 76.8388 45.044C77.1248 44.5971 77.1567 44.3835 76.9853 44.0641C76.6592 43.4557 76.0821 43.2113 75.4967 43.4333C75.2223 43.5373 71.7746 46.0175 67.835 48.9446C60.0783 54.7078 59.4669 55.0585 57.5477 54.8467C56.9329 54.779 51.759 52.9756 44.7248 50.3771C38.2391 47.9814 30.8916 45.2707 28.3971 44.3533C17.5344 40.3588 12.9435 38.5741 12.0366 37.9936C10.7257 37.1541 9.19557 35.4438 8.51626 34.0584C8.07178 33.1517 7.94015 32.5604 7.87363 31.1725C7.68959 27.3331 9.6596 23.7885 12.8096 22.2908C14.032 21.7097 16.5888 21.1367 16.8402 21.3875C16.9605 21.5074 15.778 33.8016 15.5942 34.3438C15.5472 34.4822 15.5605 34.5952 15.6238 34.5952C15.6871 34.5952 16.869 33.6224 18.25 32.433C19.6312 31.2437 20.8255 30.2477 20.9041 30.2193C20.983 30.191 21.858 31.7938 22.8492 33.7813C23.8401 35.7687 24.6843 37.3615 24.725 37.3206C24.7944 37.2516 26.8599 29.7394 28.4195 23.885L29.1027 21.3207L45.2578 21.3205C54.9413 21.3203 62.2269 21.2371 63.445 21.1124C67.1161 20.7364 70.4641 19.6404 73.4354 17.8421C74.3872 17.266 78.3627 14.4202 82.2699 11.518C86.1772 8.61583 90.6893 5.26693 92.2969 4.076C95.4659 1.72856 95.792 1.275 94.9297 0.41454L94.5142 0L66.4447 0.0253445C51.0066 0.0394239 37.7815 0.127519 37.0559 0.221047ZM77.9708 22.3218C77.7969 22.4234 75.6652 23.3204 73.2338 24.315C70.8026 25.3098 67.9515 26.4786 66.8982 26.9125C62.7782 28.6101 62.5527 28.6185 44.624 27.7558C29.3141 27.0191 30.0898 27.0275 29.9404 27.5969C29.8765 27.8411 29.8533 28.0698 29.889 28.1056C29.9702 28.1865 38.2073 29.5063 44.624 30.4665C47.2849 30.8646 51.6429 31.5493 54.3084 31.9877C62.3593 33.3122 64.5733 33.0397 68.7338 30.2117C69.5536 29.6546 72.1292 28.0211 74.4574 26.582C76.7856 25.1429 78.8947 23.8186 79.144 23.6392C80.221 22.8644 79.1333 21.6432 77.9708 22.3218ZM78.0857 31.1643C72.4132 34.5339 64.6114 38.9683 63.673 39.3565C61.5303 40.2431 63.2759 40.542 34.7468 34.4022C31.6425 33.734 28.9545 33.1875 28.7735 33.1873C28.4308 33.1873 28.1004 33.9918 28.3534 34.2105C28.4328 34.2791 35.8617 36.7924 44.8619 39.7954C56.3594 43.6316 61.4849 45.254 62.0967 45.251C63.6815 45.2429 63.7674 45.1846 71.8369 38.6194C79.4454 32.4292 81.0086 31.1136 81.0086 30.9008C81.0086 30.5176 80.5688 30.1683 80.1116 30.1884C79.8844 30.1982 78.9727 30.6375 78.0857 31.1643Z" fill="white"/>
</svg>
